HIERARCHY
ROOT root
{
	OFFSET 0.000000 0.054209 0.736571
	CHANNELS 6 Xposition Yposition Zposition Xrotation Yrotation Zrotation
	JOINT spine04
	{
		OFFSET 0.000000 -0.030951 0.078754
		CHANNELS 6 Xposition Yposition Zposition Xrotation Yrotation Zrotation
		JOINT spine02
		{
			OFFSET 0.000000 -0.000238 0.104623
			CHANNELS 6 Xposition Yposition Zposition Xrotation Yrotation Zrotation
			JOINT spine01
			{
				OFFSET 0.000000 0.017421 0.109292
				CHANNELS 3 Xrotation Yrotation Zrotation
				JOINT neck01
				{
					OFFSET 0.000000 -0.049753 0.167208
					CHANNELS 6 Xposition Yposition Zposition Xrotation Yrotation Zrotation
					JOINT neck02
					{
						OFFSET 0.000000 0.005512 0.021216
						CHANNELS 3 Xrotation Yrotation Zrotation
						JOINT jaw
						{
							OFFSET 0.000000 -0.043572 0.063270
							CHANNELS 6 Xposition Yposition Zposition Xrotation Yrotation Zrotation
							End Site
							{
								OFFSET 0.000000 -0.008974 0.006556
							}
						}
						JOINT eye.L
						{
							OFFSET 0.023674 -0.098121 0.090003
							CHANNELS 3 Xrotation Yrotation Zrotation
							End Site
							{
								OFFSET 0.001819 -0.030370 -0.004421
							}
						}
						JOINT orbicularis03.L
						{
							OFFSET 0.023674 -0.098121 0.090003
							CHANNELS 3 Xrotation Yrotation Zrotation
							End Site
							{
								OFFSET 0.001761 -0.029014 0.005250
							}
						}
						JOINT eye.R
						{
							OFFSET -0.023674 -0.098121 0.090003
							CHANNELS 3 Xrotation Yrotation Zrotation
							End Site
							{
								OFFSET -0.001819 -0.030370 -0.004421
							}
						}
						JOINT orbicularis03.R
						{
							OFFSET -0.023674 -0.098121 0.090003
							CHANNELS 3 Xrotation Yrotation Zrotation
							End Site
							{
								OFFSET -0.001761 -0.029014 0.005250
							}
						}
						End Site
						{
							OFFSET 0.000000 0.005512 0.021217
						}
					}
				}
				JOINT clavicle.R
				{
					OFFSET -0.018367 -0.058464 0.107155
					CHANNELS 6 Xposition Yposition Zposition Xrotation Yrotation Zrotation
					JOINT upperarm01.R
					{
						OFFSET -0.132020 0.003642 -0.024313
						CHANNELS 6 Xposition Yposition Zposition Xrotation Yrotation Zrotation
						JOINT lowerarm01.R
						{
							OFFSET -0.133637 0.001770 -0.153088
							CHANNELS 6 Xposition Yposition Zposition Xrotation Yrotation Zrotation
							JOINT wrist.R
							{
								OFFSET -0.108574 -0.154815 -0.103768
								CHANNELS 6 Xposition Yposition Zposition Xrotation Yrotation Zrotation
								JOINT finger2-1.R
								{
									OFFSET -0.024321 -0.084906 -0.032804
									CHANNELS 3 Xrotation Yrotation Zrotation
									JOINT finger2-2.R
									{
										OFFSET -0.002927 -0.018838 -0.012653
										CHANNELS 3 Xrotation Yrotation Zrotation
										JOINT finger2-3.R
										{
											OFFSET 0.000460 -0.015088 -0.013862
											CHANNELS 3 Xrotation Yrotation Zrotation
											End Site
											{
												OFFSET 0.003042 -0.016083 -0.016987
											}
										}
									}
								}
								JOINT finger3-1.R
								{
									OFFSET -0.038828 -0.069770 -0.043127
									CHANNELS 3 Xrotation Yrotation Zrotation
									JOINT finger3-2.R
									{
										OFFSET -0.006387 -0.018854 -0.022184
										CHANNELS 3 Xrotation Yrotation Zrotation
										JOINT finger3-3.R
										{
											OFFSET -0.002379 -0.015757 -0.018305
											CHANNELS 3 Xrotation Yrotation Zrotation
											End Site
											{
												OFFSET 0.000156 -0.013802 -0.019326
											}
										}
									}
								}
								JOINT finger4-1.R
								{
									OFFSET -0.045586 -0.054771 -0.050312
									CHANNELS 3 Xrotation Yrotation Zrotation
									JOINT finger4-2.R
									{
										OFFSET -0.008217 -0.013209 -0.021152
										CHANNELS 3 Xrotation Yrotation Zrotation
										JOINT finger4-3.R
										{
											OFFSET -0.003838 -0.011895 -0.018031
											CHANNELS 3 Xrotation Yrotation Zrotation
											End Site
											{
												OFFSET -0.002024 -0.010563 -0.020894
											}
										}
									}
								}
								JOINT finger5-1.R
								{
									OFFSET -0.046820 -0.037780 -0.058682
									CHANNELS 3 Xrotation Yrotation Zrotation
									JOINT finger5-2.R
									{
										OFFSET -0.005233 -0.007322 -0.016539
										CHANNELS 3 Xrotation Yrotation Zrotation
										JOINT finger5-3.R
										{
											OFFSET -0.001524 -0.005484 -0.012548
											CHANNELS 3 Xrotation Yrotation Zrotation
											End Site
											{
												OFFSET -0.002248 -0.006725 -0.016024
											}
										}
									}
								}
								JOINT finger1-1.R
								{
									OFFSET -0.000927 -0.039280 -0.005363
									CHANNELS 3 Xrotation Yrotation Zrotation
									JOINT finger1-2.R
									{
										OFFSET 0.018386 -0.018805 -0.006894
										CHANNELS 3 Xrotation Yrotation Zrotation
										JOINT finger1-3.R
										{
											OFFSET 0.010991 -0.028095 -0.011249
											CHANNELS 3 Xrotation Yrotation Zrotation
											End Site
											{
												OFFSET 0.004840 -0.019091 -0.014527
											}
										}
									}
								}
							}
						}
					}
				}
				JOINT clavicle.L
				{
					OFFSET 0.018367 -0.058464 0.107155
					CHANNELS 6 Xposition Yposition Zposition Xrotation Yrotation Zrotation
					JOINT upperarm01.L
					{
						OFFSET 0.132020 0.003642 -0.024313
						CHANNELS 6 Xposition Yposition Zposition Xrotation Yrotation Zrotation
						JOINT lowerarm01.L
						{
							OFFSET 0.133637 0.001770 -0.153088
							CHANNELS 6 Xposition Yposition Zposition Xrotation Yrotation Zrotation
							JOINT wrist.L
							{
								OFFSET 0.108574 -0.154814 -0.103768
								CHANNELS 6 Xposition Yposition Zposition Xrotation Yrotation Zrotation
								JOINT finger2-1.L
								{
									OFFSET 0.024321 -0.084906 -0.032804
									CHANNELS 3 Xrotation Yrotation Zrotation
									JOINT finger2-2.L
									{
										OFFSET 0.002927 -0.018838 -0.012653
										CHANNELS 3 Xrotation Yrotation Zrotation
										JOINT finger2-3.L
										{
											OFFSET -0.000460 -0.015088 -0.013862
											CHANNELS 3 Xrotation Yrotation Zrotation
											End Site
											{
												OFFSET -0.003042 -0.016083 -0.016987
											}
										}
									}
								}
								JOINT finger3-1.L
								{
									OFFSET 0.038828 -0.069770 -0.043127
									CHANNELS 3 Xrotation Yrotation Zrotation
									JOINT finger3-2.L
									{
										OFFSET 0.006387 -0.018854 -0.022184
										CHANNELS 3 Xrotation Yrotation Zrotation
										JOINT finger3-3.L
										{
											OFFSET 0.002379 -0.015757 -0.018305
											CHANNELS 3 Xrotation Yrotation Zrotation
											End Site
											{
												OFFSET -0.000156 -0.013802 -0.019326
											}
										}
									}
								}
								JOINT finger4-1.L
								{
									OFFSET 0.045586 -0.054771 -0.050312
									CHANNELS 3 Xrotation Yrotation Zrotation
									JOINT finger4-2.L
									{
										OFFSET 0.008217 -0.013209 -0.021152
										CHANNELS 3 Xrotation Yrotation Zrotation
										JOINT finger4-3.L
										{
											OFFSET 0.003838 -0.011894 -0.018031
											CHANNELS 3 Xrotation Yrotation Zrotation
											End Site
											{
												OFFSET 0.002024 -0.010563 -0.020894
											}
										}
									}
								}
								JOINT finger5-1.L
								{
									OFFSET 0.046820 -0.037780 -0.058682
									CHANNELS 3 Xrotation Yrotation Zrotation
									JOINT finger5-2.L
									{
										OFFSET 0.005234 -0.007322 -0.016539
										CHANNELS 3 Xrotation Yrotation Zrotation
										JOINT finger5-3.L
										{
											OFFSET 0.001524 -0.005484 -0.012548
											CHANNELS 3 Xrotation Yrotation Zrotation
											End Site
											{
												OFFSET 0.002248 -0.006725 -0.016024
											}
										}
									}
								}
								JOINT finger1-1.L
								{
									OFFSET 0.000927 -0.039280 -0.005363
									CHANNELS 3 Xrotation Yrotation Zrotation
									JOINT finger1-2.L
									{
										OFFSET -0.018386 -0.018805 -0.006894
										CHANNELS 3 Xrotation Yrotation Zrotation
										JOINT finger1-3.L
										{
											OFFSET -0.010991 -0.028095 -0.011249
											CHANNELS 3 Xrotation Yrotation Zrotation
											End Site
											{
												OFFSET -0.004839 -0.019091 -0.014527
											}
										}
									}
								}
							}
						}
					}
				}
			}
		}
	}
	JOINT upperleg01.R
	{
		OFFSET -0.087495 -0.048056 0.004242
		CHANNELS 6 Xposition Yposition Zposition Xrotation Yrotation Zrotation
		JOINT lowerleg01.R
		{
			OFFSET -0.034522 -0.027831 -0.333803
			CHANNELS 6 Xposition Yposition Zposition Xrotation Yrotation Zrotation
			JOINT foot.R
			{
				OFFSET -0.037458 0.009413 -0.349633
				CHANNELS 3 Xrotation Yrotation Zrotation
				JOINT toe1-1.R
				{
					OFFSET -0.003290 -0.101211 -0.050981
					CHANNELS 6 Xposition Yposition Zposition Xrotation Yrotation Zrotation
					End Site
					{
						OFFSET 0.000524 -0.066142 0.003009
					}
				}
			}
		}
	}
	JOINT upperleg01.L
	{
		OFFSET 0.087495 -0.048056 0.004242
		CHANNELS 6 Xposition Yposition Zposition Xrotation Yrotation Zrotation
		JOINT lowerleg01.L
		{
			OFFSET 0.034522 -0.027831 -0.333803
			CHANNELS 6 Xposition Yposition Zposition Xrotation Yrotation Zrotation
			JOINT foot.L
			{
				OFFSET 0.037458 0.009413 -0.349633
				CHANNELS 3 Xrotation Yrotation Zrotation
				JOINT toe1-1.L
				{
					OFFSET 0.003290 -0.101211 -0.050981
					CHANNELS 6 Xposition Yposition Zposition Xrotation Yrotation Zrotation
					End Site
					{
						OFFSET -0.000524 -0.066142 0.003009
					}
				}
			}
		}
	}
}
MOTION
Frames: 4
Frame Time:	0.016667
0.3449 0.0014 0.7219 -4.4474 0.8014 -84.8375 0.0001 -0.0319 0.0774 -0.79 -1.2494 -0.207 0.0001 -0.0008 0.1043 2.379 1.6817 -0.1643 0 0 0 0 -0.0484 0.1661 15.7186 -1.4907 -3.939 -30.7264 -10.569 -0.1168 0 -0.0436 0.0633 0 -0.0001 0 0.8359 -0.0323 -4.3453 0 0 0 0.8493 -0.0278 -3.6651 0 0 0 -0.0184 -0.0582 0.107 0.5557 -4.6159 -3.3805 -0.1356 -0.0037 -0.0169 26.2198 -21.9808 6.0868 -0.1336 0.0017 -0.1531 2.1692 3.506 18.4219 -0.1086 -0.1549 -0.1038 0.2236 37.594 -15.3732 33.6147 -23.0394 21.9881 37.5603 -17.7752 31.4141 43.0641 -17.6285 35.3935 4.9462 -11.5253 8.0338 23.0645 -24.6593 19.1629 15.6569 -20.3096 12.4822 31.5728 -38.2417 38.9072 54.2152 -43.2841 49.1499 52.105 -44.1706 50.0659 -4.1912 -16.2908 7.1512 14.5104 -26.3039 6.1602 14.0096 -26.6453 6.7641 -13.5873 -38.6783 -24.2254 16.0465 15.5162 -40.5498 10.5595 22.7 -51.9633 0.0184 -0.0582 0.107 -0.1024 3.2948 -0.5495 0.1356 -0.0037 -0.0169 27.6058 27.797 1.5061 0.1336 0.0017 -0.1531 -2.4265 4.095 -12.8925 0.1086 -0.1548 -0.1038 12.5873 -45.6487 15.1524 23.2855 19.0947 -9.6005 28.6572 16.0703 -23.4996 33.7852 16.5955 -27.2229 1.1197 4.2392 -1.8409 16.8638 20.1237 -12.6111 12.086 17.0361 -8.7996 -7.4049 3.4777 -3.7812 12.3293 18.8768 -5.6069 8.498 18.6354 -5.769 -10.1156 9.2402 -4.2365 10.0176 19.0687 -1.8453 11.772 23.263 -4.7196 -9.0294 33.6512 21.3063 20.0309 -14.3956 39.8643 14.0502 -20.2544 51.6688 -0.0875 -0.0481 0.0042 -10.2768 1.5607 -11.421 -0.0345 -0.0278 -0.3338 25.9368 2.6762 -3.3413 -16.6658 1.0625 -5.1437 -0.0033 -0.1012 -0.051 0 0 0 0.0875 -0.0481 0.0042 -4.8617 1.9959 8.653 0.0345 -0.0278 -0.3338 11.8465 -1.0777 1.3516 -5.317 3.529 2.5593 0.0033 -0.1012 -0.051 0 0 0 
0.3452 0.0007 0.7223 -4.4296 0.678 -84.836 0.0001 -0.0319 0.0774 -0.7543 -1.238 -0.205 0.0001 -0.0008 0.1042 2.3694 1.6698 -0.1649 0 0 0 0 -0.0484 0.1661 15.7179 -1.4945 -3.9655 -30.9999 -10.3171 -0.0697 0 -0.0436 0.0633 0 0 0 0.8702 -0.0337 -4.3836 0 0 0 0.8843 -0.029 -3.7038 0 0 0.0001 -0.0184 -0.0583 0.107 0.5615 -4.6163 -3.4108 -0.1356 -0.0037 -0.0169 26.3853 -21.8576 5.8908 -0.1336 0.0017 -0.1531 2.0025 3.3971 18.5278 -0.1086 -0.1549 -0.1038 0.1448 37.3478 -15.5481 33.6838 -23.054 22.0661 37.6208 -17.7795 31.4708 43.1317 -17.6286 35.4569 4.9514 -11.5253 8.0342 23.0689 -24.662 19.1677 15.6538 -20.3071 12.4789 31.5729 -38.2417 38.9072 54.2151 -43.2841 49.1499 52.105 -44.1706 50.0659 -4.1898 -16.2906 7.1512 14.5109 -26.3046 6.1606 14.0081 -26.6433 6.7626 -13.5872 -38.6783 -24.2254 16.0465 15.5162 -40.5498 10.5595 22.7 -51.9633 0.0184 -0.0583 0.107 -0.0849 3.2941 -0.4457 0.1356 -0.0037 -0.0169 28.5688 27.5226 1.5053 0.1336 0.0017 -0.1531 -2.2703 4.0585 -13.206 0.1086 -0.1548 -0.1038 13.766 -45.099 15.6085 24.2097 19.4526 -10.5712 29.5398 16.252 -24.3232 34.6799 16.7192 -28.0606 1.1482 4.2682 -1.8648 16.8939 20.1477 -12.644 12.1128 17.0613 -8.829 -7.3329 3.5655 -3.8202 12.3934 18.9614 -5.6761 8.5533 18.7099 -5.8264 -10.0592 9.319 -4.2665 10.0608 19.1441 -1.8884 11.8177 23.3319 -4.7651 -9.0295 33.6512 21.3063 20.0309 -14.3956 39.8643 14.0502 -20.2544 51.6688 -0.0875 -0.0481 0.0042 -10.3068 1.6126 -11.4355 -0.0345 -0.0278 -0.3338 25.719 2.6393 -3.3046 -16.5143 1.0394 -5.1263 -0.0033 -0.1012 -0.051 0 0 0 0.0875 -0.0481 0.0042 -4.8778 2.0654 8.6549 0.0345 -0.0278 -0.3338 11.6044 -1.0774 1.3232 -5.2167 3.4605 2.5739 0.0033 -0.1012 -0.051 0 0 0 
0.3459 -0.0002 0.7227 -4.4205 0.5456 -84.7967 0.0001 -0.032 0.0773 -0.698 -1.225 -0.2071 0.0001 -0.0008 0.1041 2.3521 1.645 -0.1702 0 0 0 0 -0.0484 0.166 15.7181 -1.4922 -3.9875 -31.1536 -9.9552 -0.0109 0 -0.0436 0.0633 0 0 0 0.8824 -0.0342 -4.4242 0 0 0 0.8969 -0.0295 -3.745 0 0 0 -0.0184 -0.0583 0.107 0.5701 -4.6169 -3.4539 -0.1356 -0.0037 -0.0169 26.5672 -21.6235 5.7129 -0.1336 0.0017 -0.1531 1.8831 3.2772 18.5717 -0.1086 -0.1549 -0.1038 0.091 36.9849 -15.7541 33.8219 -23.0868 22.2307 37.7458 -17.7881 31.5879 43.2712 -17.6286 35.5879 4.9635 -11.5264 8.0363 23.0795 -24.6684 19.1791 15.649 -20.3033 12.4736 31.5729 -38.2417 38.9072 54.2152 -43.2841 49.1499 52.1051 -44.1706 50.0659 -4.1857 -16.2918 7.152 14.5129 -26.3074 6.1626 14.0061 -26.6406 6.7606 -13.5873 -38.6783 -24.2254 16.0465 15.5163 -40.5498 10.5595 22.7 -51.9633 0.0184 -0.0583 0.107 -0.0657 3.2936 -0.3421 0.1356 -0.0037 -0.0169 29.802 26.859 1.1582 0.1336 0.0017 -0.1531 -2.2064 4.2245 -13.7378 0.1086 -0.1548 -0.1038 14.3987 -43.886 15.2601 25.7186 19.9983 -12.1536 30.9708 16.5193 -25.6595 36.1287 16.8923 -29.4175 1.2175 4.3407 -1.9247 16.9678 20.2066 -12.7249 12.1791 17.1233 -8.9019 -7.1771 3.7578 -3.9064 12.533 19.1447 -5.8266 8.6751 18.8732 -5.9526 -9.9432 9.4807 -4.3284 10.1496 19.2988 -1.9768 11.912 23.4737 -4.8588 -9.0295 33.6511 21.3063 20.0309 -14.3956 39.8643 14.0502 -20.2544 51.6687 -0.0875 -0.0481 0.0042 -10.3748 1.7085 -11.4671 -0.0345 -0.0278 -0.3338 25.5173 2.5997 -3.2696 -16.3324 1.0127 -5.1154 -0.0033 -0.1012 -0.051 0 0 0 0.0875 -0.0481 0.0042 -4.8825 2.1814 8.6327 0.0345 -0.0278 -0.3338 11.2688 -1.0727 1.2838 -5.0634 3.3423 2.5889 0.0033 -0.1012 -0.051 0 0 0 
0.3463 -0.0007 0.7232 -4.3747 0.4388 -84.5896 0.0001 -0.032 0.0772 -0.6421 -1.2035 -0.2181 0.0001 -0.0008 0.104 2.336 1.6245 -0.1855 0 0 0 0 -0.0483 0.166 15.7171 -1.5057 -4.0599 -31.1958 -9.6406 -0.0359 0 -0.0436 0.0633 0 -0.0001 0 0.8723 -0.0341 -4.4672 0 0 0 0.8868 -0.0294 -3.7889 0 0 0.0001 -0.0184 -0.0583 0.107 0.58 -4.6175 -3.5044 -0.1356 -0.0037 -0.0169 26.7798 -21.4162 5.5528 -0.1336 0.0017 -0.1531 1.903 3.1774 18.4711 -0.1086 -0.1549 -0.1038 -0.0278 36.662 -15.8973 33.8669 -23.0973 22.2842 37.7864 -17.7909 31.626 43.3165 -17.6286 35.6303 4.969 -11.5276 8.0379 23.0848 -24.6716 19.1848 15.6472 -20.3017 12.4716 31.5729 -38.2417 38.9072 54.2152 -43.2841 49.1499 52.1051 -44.1706 50.0659 -4.1836 -16.293 7.1527 14.5141 -26.3091 6.1639 14.0055 -26.6397 6.76 -13.5872 -38.6783 -24.2253 16.0465 15.5162 -40.5498 10.5595 22.7 -51.9633 0.0184 -0.0583 0.107 -0.0443 3.2931 -0.2366 0.1356 -0.0037 -0.0169 31.1525 25.8479 0.599 0.1336 0.0017 -0.1531 -2.1965 4.4892 -14.4191 0.1086 -0.1548 -0.1038 14.2784 -42.6415 14.067 26.2989 20.1961 -12.7624 31.5185 16.6127 -26.1711 36.6823 16.9496 -29.9362 1.2501 4.3758 -1.9538 17.0032 20.2347 -12.7637 12.211 17.153 -8.9369 -7.1111 3.8408 -3.944 12.5935 19.2239 -5.8919 8.7272 18.9429 -6.0066 -9.8958 9.5471 -4.354 10.1862 19.3623 -2.0133 11.9506 23.5316 -4.8972 -9.0294 33.6511 21.3062 20.0309 -14.3956 39.8643 14.0502 -20.2544 51.6688 -0.0875 -0.0481 0.0042 -10.4063 1.7813 -11.6248 -0.0345 -0.0278 -0.3338 25.3602 2.5475 -3.2384 -16.1975 0.9902 -5.1569 -0.0033 -0.1012 -0.051 0 0 0 0.0875 -0.0481 0.0042 -4.9228 2.2512 8.4843 0.0345 -0.0278 -0.3338 11.0297 -1.0811 1.2564 -4.9495 3.2479 2.551 0.0033 -0.1012 -0.051 0 0 0 
